#!OML:ASF H:\charlestonDancing\Project 1\Capture day 1\Session 1\femaleDancer.ASF
:FULLY-SPECIFIED
:DEGREES
396
root 0.450531 17.7595 -1.93533 -40.9687 -91.3582 39.3078
lowerback 14.1058 0.188381 -0.0240515
upperback 3.32678 0.0725956 -0.475347
thorax -4.39371 -0.0282741 -0.492723
lowerneck 9.78866 -14.5107 -11.7905
upperneck -0.16029 -20.4688 4.85501
head 0.0997412 -10.334 3.814
rclavicle 1.44119e-015 8.94531e-015
rhumerus -32.6878 5.89522 -83.2551
rradius 27.6845
rwrist 25.5342
rhand -28.4036 -33.0115
rfingers 7.12502
rthumb -1.77574 -62.9838
lclavicle 1.44119e-015 8.94531e-015
lhumerus -46.4563 18.8855 9.40782
lradius 147.343
lwrist 0.763899
lhand 4.04576 8.70572
lfingers 7.12502
lthumb 29.4594 36.3895
rfemur -33.8298 1.38036 17.3185
rtibia 72.2216
rfoot -25.9952 0.478674
rtoes -21.8265
lfemur -11.2156 -3.11761 -28.0486
ltibia 37.038
lfoot -12.0566 -4.44859
ltoes -6.13649
397
root 0.422085 17.7645 -1.93793 -44.215 -91.6879 42.5506
lowerback 14.0992 0.214908 0.0769462
upperback 3.30546 0.124436 -0.446104
thorax -4.41183 -0.00331633 -0.528305
lowerneck 9.47033 -14.6558 -10.9688
upperneck 0.2527 -20.5614 3.77053
head 0.0840709 -10.3639 3.30168
rclavicle 2.38542e-015 1.11319e-014
rhumerus -32.8823 5.04793 -82.8873
rradius 26.7943
rwrist 26.2324
rhand -28.326 -32.9666
rfingers 7.12502
rthumb -1.70073 -62.9396
lclavicle 2.38542e-015 1.11319e-014
lhumerus -46.6348 18.8158 9.00558
lradius 147.592
lwrist 0.574224
lhand 3.83113 8.73494
lfingers 7.12502
lthumb 29.2545 36.4546
rfemur -34.0315 1.88152 17.7138
rtibia 68.6765
rfoot -27.0577 0.868606
rtoes -23.7786
lfemur -10.9352 -2.94354 -27.6913
ltibia 36.6703
lfoot -12.3049 -4.6894
ltoes -5.12183
398
root 0.396052 17.7665 -1.94347 -46.7158 -91.8635 45.0875
lowerback 14.0591 0.243315 0.0688157
upperback 3.26019 0.164276 -0.423267
thorax -4.4373 0.0173517 -0.506784
lowerneck 9.50975 -14.7194 -11.1706
upperneck 0.542055 -20.6704 3.85536
head 0.212879 -10.4296 3.3392
rclavicle 2.28602e-015 5.56597e-015
rhumerus -33.0034 4.06577 -82.4139
rradius 25.8785
rwrist 27.0982
rhand -28.2828 -32.7291
rfingers 7.12502
rthumb -1.65903 -62.7023
lclavicle 2.28602e-015 5.56597e-015
lhumerus -46.7315 18.8551 8.60608
lradius 147.833
lwrist 0.614938
lhand 3.71651 8.82292
lfingers 7.12502
lthumb 29.145 36.5616
rfemur -34.0642 2.196 18.01
rtibia 64.751
rfoot -27.9278 1.83733
rtoes -24.2466
lfemur -10.6504 -2.69242 -27.4288
ltibia 36.2016
lfoot -12.4189 -5.04643
ltoes -3.7875
399
root 0.366845 17.7646 -1.94812 -43.9755 -91.6213 42.3263
lowerback 14.0848 0.252562 -0.306841
upperback 3.18418 0.12051 -0.502575
thorax -4.5327 0.000422698 -0.370223
lowerneck 9.54765 -14.7842 -11.3509
upperneck 0.873974 -20.781 3.87567
head 0.346847 -10.4963 3.35114
rclavicle 1.04362e-015 7.15625e-015
rhumerus -33.163 2.94644 -81.8354
rradius 25.0216
rwrist 28.3544
rhand -28.2591 -32.7223
rfingers 7.12502
rthumb -1.63617 -62.6958
lclavicle 1.04362e-015 7.15625e-015
lhumerus -46.8345 18.9173 8.16393
lradius 148.086
lwrist 0.800255
lhand 3.72605 8.90782
lfingers 7.12502
lthumb 29.1541 36.645
rfemur -33.8291 2.20056 17.8491
rtibia 60.596
rfoot -28.8065 2.79354
rtoes -25.5637
lfemur -10.2437 -2.43703 -27.6345
ltibia 35.6874
lfoot -12.4836 -5.44531
ltoes -3.57826
400
root 0.339275 17.7612 -1.95263 -30.4827 -91.1562 28.809
lowerback 14.1071 0.259622 -0.959095
upperback 3.13196 0.0257111 -0.683997
thorax -4.60095 -0.0393671 -0.175272
lowerneck 9.58287 -14.8434 -11.4292
upperneck 1.06187 -20.8728 3.85557
head 0.416713 -10.5481 3.34513
rclavicle -4.96962e-016 3.97569e-016
rhumerus -33.2368 1.82828 -81.2565
rradius 24.2645
rwrist 29.7443
rhand -28.257 -33.0435
rfingers 7.12502
rthumb -1.63416 -63.017
lclavicle -4.96962e-016 3.97569e-016
lhumerus -46.8824 19.1055 7.67992
lradius 148.265
lwrist 1.03894
lhand 3.74247 8.93012
lfingers 7.12502
lthumb 29.1698 36.6646
rfemur -33.4703 2.13623 17.3467
rtibia 56.3456
rfoot -29.2737 3.8046
rtoes -25.5328
lfemur -9.85121 -2.17952 -28.1793
ltibia 35.1712
lfoot -12.4219 -5.99607
ltoes -3.48684
401
root 0.318437 17.7568 -1.96118 -7.06776 -90.8678 5.43252
lowerback 14.0605 0.254357 -1.60339
upperback 3.12768 -0.0828654 -0.830925
thorax -4.57928 -0.0868542 0.0539423
lowerneck 9.70197 -14.8069 -12.004
upperneck 1.02571 -20.8904 4.47885
head 0.524391 -10.5717 3.63196
rclavicle -1.09332e-015 -5.96354e-015
rhumerus -33.1446 0.911468 -80.7595
rradius 23.6087
rwrist 30.9144
rhand -28.4589 -33.1645
rfingers 7.12502
rthumb -1.82914 -63.1364
lclavicle -1.09332e-015 -5.96354e-015
lhumerus -46.9584 19.4519 7.18469
lradius 148.385
lwrist 1.29435
lhand 3.70094 8.98663
lfingers 7.12502
lthumb 29.1301 36.7279
rfemur -33.1187 2.3146 16.8959
rtibia 52.1125
rfoot -29.5954 4.96782
rtoes -22.6199
lfemur -9.61651 -1.88842 -28.6246
ltibia 34.6921
lfoot -12.1402 -6.55425
ltoes -2.832
402
root 0.299124 17.75 -1.96741 9.15933 -90.6616 -10.7748
lowerback 14.0078 0.213443 -1.89669
upperback 3.13721 -0.182193 -0.901872
thorax -4.5387 -0.133433 0.162722
lowerneck 10.3107 -14.6333 -13.7528
upperneck 0.639227 -20.9078 6.92765
head 0.714538 -10.6305 4.20677
rclavicle -2.38542e-015 8.34896e-015
rhumerus -33.088 0.0710008 -80.2708
rradius 23.1018
rwrist 31.8194
rhand -28.638 -33.1048
rfingers 7.12502
rthumb -2.00208 -63.0752
lclavicle -2.38542e-015 8.34896e-015
lhumerus -46.941 19.7242 6.80336
lradius 148.469
lwrist 1.45833
lhand 3.48685 9.20655
lfingers 7.12502
lthumb 28.9257 36.9831
rfemur -32.6711 2.5574 16.7016
rtibia 48.1691
rfoot -31.3807 5.38126
rtoes -19.6907
lfemur -9.36659 -1.58999 -28.7734
ltibia 34.2548
lfoot -11.8745 -6.90162
ltoes -2.66269
403
root 0.277615 17.7407 -1.96606 45.7973 -90.4994 -47.3934
lowerback 13.8858 0.13857 -2.09362
upperback 3.16845 -0.309867 -0.977997
thorax -4.43661 -0.195786 0.216224
lowerneck 10.392 -14.5614 -14.1243
upperneck 0.445933 -20.8573 7.36693
head 0.722547 -10.6121 4.38736
rclavicle 3.27995e-015 2.22639e-014
rhumerus -32.9928 -0.714383 -79.7564
rradius 22.7204
rwrist 32.3889
rhand -28.6385 -33.2649
rfingers 7.12502
rthumb -2.00254 -63.2353
lclavicle 3.27995e-015 2.22639e-014
lhumerus -46.8557 20.0269 6.53261
lradius 148.5
lwrist 1.55829
lhand 3.53402 9.28402
lfingers 7.12502
lthumb 28.9707 37.0528
rfemur -32.1803 2.54343 16.4571
rtibia 44.5935
rfoot -31.4292 4.58322
rtoes -22.1265
lfemur -9.12152 -1.28722 -28.9746
ltibia 33.9197
lfoot -11.7177 -7.47366
ltoes -2.39585
404
root 0.256331 17.741 -1.96296 87.1813 -90.7633 -88.7373
lowerback 13.7731 0.0508303 -2.4279
upperback 3.17654 -0.474753 -1.07509
thorax -4.36171 -0.274923 0.3312
lowerneck 10.2875 -14.4909 -14.0986
upperneck 0.313618 -20.7427 7.29102
head 0.675635 -10.548 4.3675
rclavicle 1.78906e-015 0
rhumerus -32.8568 -1.18153 -79.3556
rradius 22.499
rwrist 32.5667
rhand -28.6572 -33.3744
rfingers 7.12502
rthumb -2.0206 -63.3446
lclavicle 1.78906e-015 0
lhumerus -46.879 20.3847 6.25021
lradius 148.503
lwrist 1.67611
lhand 4.47674 9.06298
lfingers 7.12502
lthumb 29.8708 36.6736
rfemur -31.4809 2.35092 16.0464
rtibia 41.6082
rfoot -29.9672 2.66857
rtoes -27.1129
lfemur -8.9566 -0.923881 -29.3074
ltibia 33.671
lfoot -11.386 -8.42133
ltoes -1.62903
405
root 0.238436 17.7415 -1.96644 100.842 -90.9369 -102.377
lowerback 13.8188 -0.00452273 -2.57047
upperback 3.09235 -0.570818 -1.11394
thorax -4.47199 -0.317959 0.387858
lowerneck 10.0977 -14.4198 -13.8506
upperneck 0.321423 -20.5979 6.98981
head 0.635348 -10.4658 4.24812
rclavicle 5.1684e-015 1.03368e-014
rhumerus -32.8541 -1.35556 -79.1203
rradius 22.4703
rwrist 32.5114
rhand -28.5819 -33.2836
rfingers 7.12502
rthumb -1.94795 -63.2544
lclavicle 5.1684e-015 1.03368e-014
lhumerus -46.9051 20.4774 6.02099
lradius 148.505
lwrist 1.84811
lhand 5.56541 8.97259
lfingers 7.12502
lthumb 30.9091 36.3913
rfemur -30.93 2.42728 15.8903
rtibia 39.103
rfoot -30.6199 1.46883
rtoes -26.3027
lfemur -8.85546 -0.441677 -29.3229
ltibia 33.4942
lfoot -10.9547 -9.31485
ltoes -2.10467
406
root 0.221546 17.7486 -1.9718 111.693 -90.9132 -113.206
lowerback 13.8278 -0.0665851 -2.52141
upperback 3.01233 -0.64239 -1.08429
thorax -4.55949 -0.350376 0.403901
lowerneck 9.95387 -14.3055 -13.5628
upperneck 0.21125 -20.3955 6.74112
head 0.549233 -10.3538 4.15089
rclavicle 4.96962e-016 -3.57812e-015
rhumerus -32.7976 -1.21276 -79.0365
rradius 22.5075
rwrist 32.384
rhand -28.3395 -33.1797
rfingers 7.12502
rthumb -1.71377 -63.1525
lclavicle 4.96962e-016 -3.57812e-015
lhumerus -46.961 20.4216 5.90214
lradius 148.509
lwrist 2.05936
lhand 5.65334 9.01955
lfingers 7.12502
lthumb 30.9929 36.4224
rfemur -30.4686 2.64309 15.9689
rtibia 37.1761
rfoot -30.1678 0.710502
rtoes -25.4953
lfemur -8.81762 -0.0304294 -29.096
ltibia 33.3843
lfoot -10.6109 -9.94818
ltoes -2.67063
407
root 0.203314 17.762 -1.97474 125.509 -90.9211 -126.968
lowerback 13.7017 -0.165386 -2.4263
upperback 2.97186 -0.749807 -1.04216
thorax -4.53114 -0.402579 0.412101
lowerneck 9.84713 -14.1671 -13.392
upperneck 0.0103071 -20.1758 6.68136
head 0.460375 -10.2359 4.12637
rclavicle 5.06901e-015 5.1684e-015
rhumerus -32.6007 -0.877923 -79.0462
rradius 22.5708
rwrist 32.2192
rhand -28.2256 -33.0743
rfingers 7.12502
rthumb -1.60384 -63.048
lclavicle 5.06901e-015 5.1684e-015
lhumerus -47.072 20.3527 5.90385
lradius 148.512
lwrist 2.24618
lhand 5.02677 9.01311
lfingers 7.12502
lthumb 30.3955 36.528
rfemur -30.0059 2.68396 16.1029
rtibia 35.6552
rfoot -29.4895 -0.348743
rtoes -26.5314
lfemur -8.81846 0.131392 -28.907
ltibia 33.3389
lfoot -10.3203 -10.3137
ltoes -1.9067
408
root 0.19009 17.777 -1.97971 148.176 -90.8316 -149.535
lowerback 13.5797 -0.264946 -2.12097
upperback 2.9181 -0.825598 -0.951678
thorax -4.52198 -0.440605 0.346711
lowerneck 9.73232 -14.0597 -13.2972
upperneck -0.206123 -20.003 6.76637
head 0.395375 -10.1444 4.14765
rclavicle -4.87022e-015 -5.56597e-015
rhumerus -32.3421 -0.430628 -79.1478
rradius 22.7952
rwrist 31.6719
rhand -28.2839 -33.0432
rfingers 7.12502
rthumb -1.66012 -63.0165
lclavicle -4.87022e-015 -5.56597e-015
lhumerus -47.1842 20.2459 5.96705
lradius 148.516
lwrist 2.42562
lhand 4.64003 8.97067
lfingers 7.12502
lthumb 30.0266 36.5531
rfemur -29.6957 2.74591 16.4776
rtibia 34.6422
rfoot -29.6576 -1.08713
rtoes -26.2212
lfemur -8.83813 0.0751231 -28.5313
ltibia 33.2417
lfoot -10.1573 -10.4081
ltoes -0.983139
409
root 0.180215 17.7899 -1.98329 172.824 -90.8198 -174.058
lowerback 13.4619 -0.36716 -1.7843
upperback 2.88337 -0.901024 -0.842487
thorax -4.49577 -0.479465 0.282855
lowerneck 9.39964 -13.96 -13.2276
upperneck -0.337592 -19.8177 6.8935
head 0.394771 -10.0465 4.16146
rclavicle 2.78299e-015 7.95139e-016
rhumerus -31.9901 0.351094 -79.3584
rradius 23.2119
rwrist 30.7594
rhand -28.2145 -33.096
rfingers 7.12502
rthumb -1.59308 -63.0698
lclavicle 2.78299e-015 7.95139e-016
lhumerus -47.4583 20.1745 5.96789
lradius 148.543
lwrist 2.59925
lhand 4.63553 8.90095
lfingers 7.12502
lthumb 30.0223 36.4842
rfemur -29.5361 2.87961 16.8484
rtibia 34.126
rfoot -29.1387 -1.31943
rtoes -26.3454
lfemur -8.82952 -0.130521 -28.1838
ltibia 33.0476
lfoot -10.2346 -10.2449
ltoes -1.27558
410
root 0.166365 17.8029 -1.97925 174.376 -90.9462 -175.494
lowerback 13.2832 -0.4584 -1.71718
upperback 2.86816 -1.00347 -0.805501
thorax -4.41263 -0.530048 0.298857
lowerneck 8.87987 -13.8526 -13.1011
upperneck -0.286181 -19.5996 6.9797
head 0.465261 -9.93284 4.13469
rclavicle -1.59028e-015 -7.95139e-016
rhumerus -31.675 1.26627 -79.5505
rradius 23.7732
rwrist 29.948
rhand -27.9521 -33.2208
rfingers 7.12502
rthumb -1.33961 -63.1963
lclavicle -1.59028e-015 -7.95139e-016
lhumerus -47.8281 20.0492 6.00062
lradius 148.612
lwrist 2.68194
lhand 4.59722 8.92095
lfingers 7.12502
lthumb 29.9857 36.5108
rfemur -29.4084 2.87206 16.8377
rtibia 34.0068
rfoot -29.1245 -1.0626
rtoes -25.4057
lfemur -8.71618 -0.474327 -28.2572
ltibia 32.7922
lfoot -10.43 -9.92944
ltoes -2.22688
